<svg width="30" height="31" viewBox="0 0 30 31" fill="none" xmlns="http://www.w3.org/2000/svg">
<path d="M12.7511 6.84612C13.6199 6.54248 14.5466 6.38054 15.5082 6.38054C19.7172 6.38054 23.2311 9.51413 24.0343 13.6801L30.0003 12.4048C28.6333 5.32791 22.6635 0 15.5082 0C13.867 0 12.2954 0.279351 10.8203 0.797567L12.7511 6.84612Z" fill="#828282"/>
<path d="M5.71121 27.1135L9.74646 22.3321C7.94701 20.66 6.81173 18.2188 6.81173 15.4981C6.81173 12.7815 7.94701 10.3403 9.74646 8.67225L5.71121 3.88684C2.65291 6.72893 0.722168 10.8787 0.722168 15.4981C0.722168 20.1216 2.65291 24.2714 5.71121 27.1135" fill="#E0E0E0"/>
<path d="M24.0343 17.328C23.2273 21.4899 19.7172 24.6195 15.512 24.6195C14.5466 24.6195 13.616 24.4575 12.7511 24.1498L10.8203 30.2065C12.2954 30.7207 13.8709 31 15.512 31C22.6596 31 28.6256 25.6802 30.0003 18.6114L24.0343 17.328Z" fill="#BDBDBD"/>
</svg>
